<svg xmlns="http://www.w3.org/2000/svg" viewBox="0 0 512 512">
  <defs>
    <linearGradient id="bgGrad" x1="0%" y1="0%" x2="100%" y2="100%">
      <stop offset="0%" style="stop-color:#6366f1;stop-opacity:1" />
      <stop offset="100%" style="stop-color:#4f46e5;stop-opacity:1" />
    </linearGradient>
  </defs>

  <!-- Background -->
  <rect width="512" height="512" rx="100" fill="url(#bgGrad)"/>

  <!-- Large QR Code (85% of screen with better spacing) -->
  <g transform="translate(40, 40)">
    <!-- QR Code white background with shadow -->
    <rect x="0" y="0" width="432" height="432" rx="24" fill="white" opacity="0.98"/>

    <!-- QR Code pattern -->
    <g fill="#1e293b" transform="translate(30, 30)">
      <!-- Scale: 372px QR code area -->

      <!-- Top-left finder pattern -->
      <rect x="0" y="0" width="92" height="92" rx="5"/>
      <rect x="14" y="14" width="64" height="64" rx="5" fill="white"/>
      <rect x="28" y="28" width="36" height="36" rx="3" fill="#1e293b"/>

      <!-- Top-right finder pattern -->
      <rect x="280" y="0" width="92" height="92" rx="5"/>
      <rect x="294" y="14" width="64" height="64" rx="5" fill="white"/>
      <rect x="308" y="28" width="36" height="36" rx="3" fill="#1e293b"/>

      <!-- Bottom-left finder pattern -->
      <rect x="0" y="280" width="92" height="92" rx="5"/>
      <rect x="14" y="294" width="64" height="64" rx="5" fill="white"/>
      <rect x="28" y="308" width="36" height="36" rx="3" fill="#1e293b"/>

      <!-- Data modules (18x18px) -->
      <!-- Row 1 -->
      <rect x="110" y="10" width="18" height="18" rx="2"/>
      <rect x="133" y="10" width="18" height="18" rx="2"/>
      <rect x="156" y="10" width="18" height="18" rx="2"/>
      <rect x="179" y="10" width="18" height="18" rx="2"/>
      <rect x="202" y="10" width="18" height="18" rx="2"/>
      <rect x="225" y="10" width="18" height="18" rx="2"/>
      <rect x="248" y="10" width="18" height="18" rx="2"/>

      <!-- Row 2 -->
      <rect x="110" y="33" width="18" height="18" rx="2"/>
      <rect x="156" y="33" width="18" height="18" rx="2"/>
      <rect x="202" y="33" width="18" height="18" rx="2"/>
      <rect x="225" y="33" width="18" height="18" rx="2"/>
      <rect x="248" y="33" width="18" height="18" rx="2"/>

      <!-- Row 3 -->
      <rect x="110" y="56" width="18" height="18" rx="2"/>
      <rect x="133" y="56" width="18" height="18" rx="2"/>
      <rect x="179" y="56" width="18" height="18" rx="2"/>
      <rect x="202" y="56" width="18" height="18" rx="2"/>
      <rect x="248" y="56" width="18" height="18" rx="2"/>

      <!-- Row 4 -->
      <rect x="133" y="79" width="18" height="18" rx="2"/>
      <rect x="156" y="79" width="18" height="18" rx="2"/>
      <rect x="179" y="79" width="18" height="18" rx="2"/>
      <rect x="225" y="79" width="18" height="18" rx="2"/>
      <rect x="248" y="79" width="18" height="18" rx="2"/>

      <!-- Column patterns -->
      <rect x="10" y="110" width="18" height="18" rx="2"/>
      <rect x="10" y="133" width="18" height="18" rx="2"/>
      <rect x="10" y="156" width="18" height="18" rx="2"/>
      <rect x="10" y="179" width="18" height="18" rx="2"/>
      <rect x="10" y="202" width="18" height="18" rx="2"/>
      <rect x="10" y="225" width="18" height="18" rx="2"/>
      <rect x="10" y="248" width="18" height="18" rx="2"/>

      <rect x="33" y="110" width="18" height="18" rx="2"/>
      <rect x="33" y="156" width="18" height="18" rx="2"/>
      <rect x="33" y="179" width="18" height="18" rx="2"/>
      <rect x="33" y="225" width="18" height="18" rx="2"/>
      <rect x="33" y="248" width="18" height="18" rx="2"/>

      <rect x="56" y="110" width="18" height="18" rx="2"/>
      <rect x="56" y="133" width="18" height="18" rx="2"/>
      <rect x="56" y="156" width="18" height="18" rx="2"/>
      <rect x="56" y="202" width="18" height="18" rx="2"/>
      <rect x="56" y="225" width="18" height="18" rx="2"/>

      <rect x="79" y="110" width="18" height="18" rx="2"/>
      <rect x="79" y="133" width="18" height="18" rx="2"/>
      <rect x="79" y="179" width="18" height="18" rx="2"/>
      <rect x="79" y="202" width="18" height="18" rx="2"/>
      <rect x="79" y="248" width="18" height="18" rx="2"/>

      <!-- Center area data -->
      <rect x="110" y="110" width="18" height="18" rx="2"/>
      <rect x="133" y="110" width="18" height="18" rx="2"/>
      <rect x="156" y="110" width="18" height="18" rx="2"/>
      <rect x="179" y="110" width="18" height="18" rx="2"/>
      <rect x="202" y="110" width="18" height="18" rx="2"/>
      <rect x="225" y="110" width="18" height="18" rx="2"/>
      <rect x="248" y="110" width="18" height="18" rx="2"/>

      <rect x="110" y="133" width="18" height="18" rx="2"/>
      <rect x="156" y="133" width="18" height="18" rx="2"/>
      <rect x="179" y="133" width="18" height="18" rx="2"/>
      <rect x="202" y="133" width="18" height="18" rx="2"/>
      <rect x="248" y="133" width="18" height="18" rx="2"/>

      <rect x="110" y="156" width="18" height="18" rx="2"/>
      <rect x="133" y="156" width="18" height="18" rx="2"/>
      <rect x="179" y="156" width="18" height="18" rx="2"/>
      <rect x="225" y="156" width="18" height="18" rx="2"/>
      <rect x="248" y="156" width="18" height="18" rx="2"/>

      <rect x="133" y="179" width="18" height="18" rx="2"/>
      <rect x="156" y="179" width="18" height="18" rx="2"/>
      <rect x="202" y="179" width="18" height="18" rx="2"/>
      <rect x="225" y="179" width="18" height="18" rx="2"/>
      <rect x="248" y="179" width="18" height="18" rx="2"/>

      <rect x="110" y="202" width="18" height="18" rx="2"/>
      <rect x="133" y="202" width="18" height="18" rx="2"/>
      <rect x="156" y="202" width="18" height="18" rx="2"/>
      <rect x="202" y="202" width="18" height="18" rx="2"/>
      <rect x="225" y="202" width="18" height="18" rx="2"/>

      <rect x="110" y="225" width="18" height="18" rx="2"/>
      <rect x="156" y="225" width="18" height="18" rx="2"/>
      <rect x="179" y="225" width="18" height="18" rx="2"/>
      <rect x="202" y="225" width="18" height="18" rx="2"/>
      <rect x="248" y="225" width="18" height="18" rx="2"/>

      <rect x="133" y="248" width="18" height="18" rx="2"/>
      <rect x="156" y="248" width="18" height="18" rx="2"/>
      <rect x="179" y="248" width="18" height="18" rx="2"/>
      <rect x="202" y="248" width="18" height="18" rx="2"/>
      <rect x="225" y="248" width="18" height="18" rx="2"/>

      <!-- Right column -->
      <rect x="290" y="110" width="18" height="18" rx="2"/>
      <rect x="290" y="133" width="18" height="18" rx="2"/>
      <rect x="290" y="156" width="18" height="18" rx="2"/>
      <rect x="290" y="179" width="18" height="18" rx="2"/>
      <rect x="290" y="202" width="18" height="18" rx="2"/>
      <rect x="290" y="225" width="18" height="18" rx="2"/>
      <rect x="290" y="248" width="18" height="18" rx="2"/>

      <rect x="313" y="110" width="18" height="18" rx="2"/>
      <rect x="313" y="156" width="18" height="18" rx="2"/>
      <rect x="313" y="179" width="18" height="18" rx="2"/>
      <rect x="313" y="225" width="18" height="18" rx="2"/>

      <rect x="336" y="110" width="18" height="18" rx="2"/>
      <rect x="336" y="133" width="18" height="18" rx="2"/>
      <rect x="336" y="179" width="18" height="18" rx="2"/>
      <rect x="336" y="202" width="18" height="18" rx="2"/>
      <rect x="336" y="225" width="18" height="18" rx="2"/>
      <rect x="336" y="248" width="18" height="18" rx="2"/>

      <rect x="359" y="133" width="18" height="18" rx="2"/>
      <rect x="359" y="156" width="18" height="18" rx="2"/>
      <rect x="359" y="179" width="18" height="18" rx="2"/>
      <rect x="359" y="202" width="18" height="18" rx="2"/>
      <rect x="359" y="248" width="18" height="18" rx="2"/>

      <!-- Bottom rows -->
      <rect x="110" y="290" width="18" height="18" rx="2"/>
      <rect x="133" y="290" width="18" height="18" rx="2"/>
      <rect x="156" y="290" width="18" height="18" rx="2"/>
      <rect x="202" y="290" width="18" height="18" rx="2"/>
      <rect x="248" y="290" width="18" height="18" rx="2"/>

      <rect x="110" y="313" width="18" height="18" rx="2"/>
      <rect x="156" y="313" width="18" height="18" rx="2"/>
      <rect x="179" y="313" width="18" height="18" rx="2"/>
      <rect x="202" y="313" width="18" height="18" rx="2"/>
      <rect x="225" y="313" width="18" height="18" rx="2"/>
      <rect x="248" y="313" width="18" height="18" rx="2"/>

      <rect x="110" y="336" width="18" height="18" rx="2"/>
      <rect x="133" y="336" width="18" height="18" rx="2"/>
      <rect x="179" y="336" width="18" height="18" rx="2"/>
      <rect x="202" y="336" width="18" height="18" rx="2"/>
      <rect x="225" y="336" width="18" height="18" rx="2"/>

      <rect x="133" y="359" width="18" height="18" rx="2"/>
      <rect x="156" y="359" width="18" height="18" rx="2"/>
      <rect x="179" y="359" width="18" height="18" rx="2"/>
      <rect x="202" y="359" width="18" height="18" rx="2"/>
      <rect x="248" y="359" width="18" height="18" rx="2"/>

      <rect x="290" y="290" width="18" height="18" rx="2"/>
      <rect x="313" y="290" width="18" height="18" rx="2"/>
      <rect x="336" y="290" width="18" height="18" rx="2"/>
      <rect x="359" y="290" width="18" height="18" rx="2"/>

      <rect x="290" y="313" width="18" height="18" rx="2"/>
      <rect x="336" y="313" width="18" height="18" rx="2"/>
      <rect x="359" y="313" width="18" height="18" rx="2"/>

      <rect x="313" y="336" width="18" height="18" rx="2"/>
      <rect x="336" y="336" width="18" height="18" rx="2"/>
      <rect x="359" y="336" width="18" height="18" rx="2"/>

      <rect x="290" y="359" width="18" height="18" rx="2"/>
      <rect x="313" y="359" width="18" height="18" rx="2"/>
      <rect x="359" y="359" width="18" height="18" rx="2"/>
    </g>
  </g>

  <!-- Small security badge (bottom right corner) -->
  <circle cx="470" cy="470" r="30" fill="#10b981" opacity="0.95"/>
  <path d="M460 465v-6c0-5 4-9 10-9s10 4 10 9v6h-20z" fill="white"/>
  <rect x="458" y="468" width="24" height="14" rx="2" fill="white"/>
  <circle cx="470" cy="475" r="2" fill="#10b981"/>
</svg>
